<svg height='100px' width='100px'  fill="#3098f3" xmlns:x="http://ns.adobe.com/Extensibility/1.0/" xmlns:i="http://ns.adobe.com/AdobeIllustrator/10.0/" xmlns:graph="http://ns.adobe.com/Graphs/1.0/" xmlns="http://www.w3.org/2000/svg" xmlns:xlink="http://www.w3.org/1999/xlink" version="1.1" x="0px" y="0px" viewBox="0 0 100 100" style="enable-background:new 0 0 100 100;" xml:space="preserve"><g><g i:extraneous="self"><g><circle cx="54.8" cy="18.3" r="6.5"></circle><path d="M43.4,45.9C43.6,46,43.8,46,44,46c0.8,0,1.6-0.5,1.8-1.3l2.4-7.3l1-1.8l-0.3,7l-3,9.6c-0.4,1.3,0.6,2.6,1.9,2.6h2.5v8.9     l-2.1,0.6c-1,0.3-1.6,1.3-1.4,2.3c0.2,0.9,1,1.4,1.9,1.4c0.2,0,0.3,0,0.5-0.1l3.5-0.9c0.8-0.2,1.4-1,1.4-1.9V54.7h1.7V65     c0,0.9,0.6,1.6,1.4,1.9l3.5,0.9c0.2,0,0.3,0.1,0.5,0.1c0.9,0,1.6-0.6,1.9-1.4c0.3-1-0.3-2.1-1.4-2.3l-2.1-0.6v-8.9H62     c1.3,0,2.3-1.3,1.9-2.6l-3-9.6l-0.3-7l1,1.8l2.4,7.3c0.3,0.8,1,1.3,1.8,1.3c0.2,0,0.4,0,0.6-0.1c1-0.3,1.6-1.4,1.2-2.4L65.1,36     c0-0.1-0.1-0.2-0.1-0.3l-4.5-8.4c-0.3-0.6-1-1-1.7-1h-7.9c-0.7,0-1.4,0.4-1.7,1l-4.5,8.4c-0.1,0.1-0.1,0.2-0.1,0.3l-2.4,7.5     C41.8,44.5,42.4,45.6,43.4,45.9z"></path><circle cx="31.6" cy="32.4" r="5.1"></circle><path d="M23.5,52.7c0.1,0,0.3,0.1,0.4,0.1c0.6,0,1.1-0.4,1.3-1l1.7-5.1l0.6-1.2l-0.2,4.8L25.2,57c-0.3,0.9,0.4,1.8,1.3,1.8h1.7     V65l-1.4,0.4c-0.7,0.2-1.2,1-1,1.7c0.2,0.6,0.7,1,1.3,1c0.1,0,0.2,0,0.4,0l2.5-0.7c0.6-0.2,1-0.7,1-1.3v-7.3h1.1v7.3     c0,0.6,0.4,1.2,1,1.3l2.5,0.7c0.1,0,0.2,0,0.4,0c0.6,0,1.2-0.4,1.3-1c0.2-0.7-0.3-1.5-1-1.7L34.9,65v-6.2h1.7     c0.9,0,1.6-0.9,1.3-1.8l-2.1-6.8l-0.2-4.8l0.6,1.2l1.7,5.1c0.2,0.6,0.7,1,1.3,1c0.1,0,0.3,0,0.4-0.1c0.7-0.2,1.1-1,0.9-1.8     l-1.7-5.2c0-0.1-0.1-0.2-0.1-0.2l-3.2-5.9c-0.2-0.5-0.7-0.7-1.2-0.7h-5.5c-0.5,0-1,0.3-1.2,0.7l-3.2,5.9c0,0.1-0.1,0.2-0.1,0.2     l-1.7,5.2C22.4,51.6,22.8,52.4,23.5,52.7z"></path><path d="M83.6,25.1c3.8,0,6.8-3,6.8-6.8c0-3-1.9-5.5-4.6-6.4c0.4-0.4,0.6-0.9,0.6-1.4c0-1.1-0.9-2-2-2h-1.6c-1.1,0-2,0.9-2,2     c0,0.6,0.2,1.1,0.6,1.4c-2.7,0.9-4.6,3.4-4.6,6.4C76.8,22,79.8,25.1,83.6,25.1z"></path><path d="M72.1,46c0.2,0.1,0.4,0.1,0.5,0.1c0.7,0,1.4-0.5,1.7-1.2l2.4-7.3l1.2-2.2l-0.4,8.5l-3,13.7c-0.3,1.2,0.7,2.4,1.9,2.4h2.6     v4.1l-2.2,0.6c-0.9,0.2-1.5,1.2-1.2,2.1c0.2,0.8,0.9,1.3,1.7,1.3c0.1,0,0.3,0,0.4-0.1l3.5-0.9c0.8-0.2,1.3-0.9,1.3-1.7v-5.5h2     v5.5c0,0.8,0.5,1.5,1.3,1.7l3.5,0.9c0.1,0,0.3,0.1,0.4,0.1c0.8,0,1.5-0.5,1.7-1.3c0.2-0.9-0.3-1.9-1.2-2.1l-2.2-0.6v-4.1h2.6     c1.3,0,2.2-1.2,1.9-2.4l-3-13.7l-0.4-8.9l1.6,2.8l2,5.2c0.3-0.2,0.6-0.4,1-0.4h2.6L94,36.2c0-0.1-0.1-0.2-0.1-0.3L89,27.5     c-0.3-0.5-0.9-0.9-1.5-0.9h-7.9c-0.6,0-1.2,0.4-1.5,0.9L73.6,36c0,0.1-0.1,0.2-0.1,0.3L71,43.8C70.7,44.7,71.2,45.7,72.1,46z"></path><path d="M97.1,66.2c-0.3-0.3-0.6-0.4-1-0.4V44.8h0.6c0.5,0,0.9-0.4,0.9-0.9s-0.4-0.9-0.9-0.9h-2.9c-0.5,0-0.9,0.4-0.9,0.9     s0.4,0.9,0.9,0.9h0.6v20.9c-0.4,0-0.7,0.2-1,0.4c-0.3,0.3-0.4,0.7-0.4,1.1c0,0.5,0.4,0.9,0.9,0.9c0.4,0,0.8-0.3,0.9-0.7     c0.1,0,1,0,1.2,0c0.1,0.4,0.4,0.7,0.9,0.7c0.5,0,0.9-0.4,0.9-0.9C97.5,66.8,97.4,66.4,97.1,66.2z"></path><circle cx="11.8" cy="43.2" r="4.5"></circle><path d="M6.3,66.9c0.2,0.6,0.7,1,1.3,1c0.1,0,0.3,0,0.4-0.1l1.8-0.5c0.4-0.1,0.7-0.4,0.9-0.7c0.2-0.3,0.2-0.8,0.1-1.1l-1.4-3.7     l1.3-2.1l-1.4-0.9c-0.3-0.2-0.6-0.5-0.8-0.8l-1.8,3c-0.2,0.4-0.3,0.8-0.1,1.2l1.1,2.9l-0.3,0.1C6.5,65.4,6,66.2,6.3,66.9z"></path><path d="M13,66.7c0.2,0.3,0.5,0.6,0.9,0.7l1.8,0.5c0.1,0,0.3,0.1,0.4,0.1c0.6,0,1.2-0.4,1.3-1c0.2-0.7-0.2-1.5-1-1.7L16,65.1     l1.1-3.1c0.1-0.4,0.1-0.9-0.1-1.2L15.2,58c-0.2,0.3-0.5,0.6-0.8,0.8L13,59.7l1.3,2l-1.4,3.9C12.7,65.9,12.8,66.3,13,66.7z"></path><path d="M4.9,56.7l2.4-2.6l1-1.2l0.2,3.7h6.6l0.2-3.7l1.1,1.2l2.3,2.5c0.3,0.3,0.7,0.4,1,0.4c0.3,0,0.7-0.1,0.9-0.4     c0.6-0.5,0.6-1.4,0.1-2l-2.3-2.5l-2.8-3.2c-0.3-0.3-0.6-0.5-1-0.5H9.1c-0.4,0-0.8,0.2-1.1,0.5l-2.8,3.2l-2.3,2.5     c-0.5,0.6-0.5,1.4,0.1,2c0.3,0.2,0.6,0.4,0.9,0.4C4.3,57.2,4.6,57,4.9,56.7z"></path><path d="M88.5,73.3c-0.9-0.9-2.3-0.9-3.2,0c-0.9,0.9-0.9,2.3,0,3.2l3.4,3.4h-83c-1.2,0-2.2,1-2.2,2.2c0,1.2,1,2.2,2.2,2.2h83     l-3.4,3.4c-0.9,0.9-0.9,2.3,0,3.2c0.4,0.4,1,0.7,1.6,0.7c0.6,0,1.1-0.2,1.6-0.7l7.2-7.2c0.4-0.4,0.7-1,0.7-1.6s-0.2-1.2-0.7-1.6     L88.5,73.3z"></path></g></g></g></svg>