<svg height='100px' width='100px'  fill="#3098f3" xmlns="http://www.w3.org/2000/svg" xmlns:xlink="http://www.w3.org/1999/xlink" viewBox="0 0 16 15" version="1.1" x="0px" y="0px"><title>novice</title><desc>Created with Sketch.</desc><g stroke="none" stroke-width="1" fill="none" fill-rule="evenodd"><g transform="translate(-52.000000, -52.000000)" fill="#3098f3"><g transform="translate(48.000000, 48.000000)"><path d="M15.1333333,12 L8.86666667,12 L8.33333333,13 L15.6666667,13 L15.1333333,12 Z M17.3333333,14 L6.66666667,14 L8.26666667,11 L15.7333333,11 L17.3333333,14 Z M17.8,17 L6.2,17 L5.66666667,18 L18.3333333,18 L17.8,17 Z M20,19 L4,19 L5.6,16 L18.4,16 L20,19 Z M12,6.125 L11,8 L13,8 L12,6.125 Z M14.6666667,9 L9.33333333,9 L12,4 L14.6666667,9 Z"></path></g></g></g></svg>