<svg height='100px' width='100px'  fill="#ff2b62" xmlns="http://www.w3.org/2000/svg" xmlns:xlink="http://www.w3.org/1999/xlink" version="1.1" x="0px" y="0px" viewBox="0 0 100 100" style="enable-background:new 0 0 100 100;" xml:space="preserve"><style type="text/css">
	.st0{fill:none;stroke:#ff2b62;stroke-width:4;stroke-linejoin:round;stroke-miterlimit:10;}
	.st1{fill:#ff2b62;}
	.st2{fill:none;stroke:#ff2b62;stroke-width:4;stroke-linecap:round;stroke-linejoin:round;stroke-miterlimit:10;}
	.st3{fill:none;stroke:#ff2b62;stroke-width:2;stroke-linejoin:round;stroke-miterlimit:10;}
	.st4{fill:none;stroke:#ff2b62;stroke-miterlimit:10;}
	.st5{fill:none;stroke:#ff2b62;stroke-width:8;stroke-linejoin:round;stroke-miterlimit:10;}
	.st6{fill:none;stroke:#ff2b62;stroke-width:4;stroke-linejoin:round;stroke-miterlimit:10;}
	.st7{fill:none;stroke:#ff2b62;stroke-width:8;stroke-linecap:round;stroke-linejoin:round;stroke-miterlimit:10;}
	.st8{stroke:#ff2b62;stroke-width:4;stroke-linecap:round;stroke-linejoin:round;stroke-miterlimit:10;}
	.st9{fill:#ff2b62;stroke:#ff2b62;stroke-width:4;stroke-miterlimit:10;}
	.st10{fill:#ff2b62;stroke:#ff2b62;stroke-width:4;stroke-linecap:round;stroke-miterlimit:10;}
	.st11{fill:none;stroke:#ff2b62;stroke-width:4;stroke-miterlimit:10;}
	.st12{stroke:#ff2b62;stroke-width:2;stroke-linejoin:round;stroke-miterlimit:10;}
</style><g><path d="M45.3,86.9l2.2,1.7c0.7,0.5,1.5,0.8,2.4,0.9l0.3,0c0,0,0.1,0,0.1,0c0.9,0,1.8-0.3,2.5-0.9l1.3-1   C68.7,76.1,93.2,56.8,93.2,35c0-13.5-11-24.5-24.5-24.5c-7.4,0-14.2,3.2-18.8,8.7c-4.6-5.4-11.5-8.7-18.7-8.7   c-13.5,0-24.5,11-24.5,24.5C6.8,56.6,30.9,75.6,45.3,86.9z M31.2,18.5c6.3,0,12.2,3.7,14.9,9.4l0.2,0.4c0.7,1.6,2.5,2.5,4.2,2.3   c1.4-0.2,2.5-1.1,3.1-2.3c0,0,0.2-0.4,0.3-0.6c2.8-5.7,8.5-9.3,14.8-9.3c9.1,0,16.5,7.4,16.5,16.5c0,17.4-22.3,35.4-35.1,45.5   C37.7,70.8,14.8,52.7,14.8,35C14.8,25.9,22.2,18.5,31.2,18.5z"></path></g></svg>