<svg height='100px' width='100px'  fill="#3098f3" xmlns="http://www.w3.org/2000/svg" data-name="Layer 1" viewBox="0 0 100 100" x="0px" y="0px"><title>39</title><path d="M10,36.3999H5V7.5A2.49981,2.49981,0,0,1,7.5,5H36.40039v5H10Zm0,27.2002H5V92.5A2.49981,2.49981,0,0,0,7.5,95H36.40039V90H10ZM92.5,5H63.60059v5H90V36.3999h5V7.5A2.49981,2.49981,0,0,0,92.5,5ZM90,90H63.60059v5H92.5A2.49981,2.49981,0,0,0,95,92.5V63.6001H90ZM52.5,74.45123v7.8891a2.5,2.5,0,0,1-5,0v-7.8891A24.62269,24.62269,0,0,1,25.54932,52.5H17.66016a2.5,2.5,0,0,1,0-5h7.88916A24.62269,24.62269,0,0,1,47.5,25.54877v-7.8891a2.5,2.5,0,0,1,5,0v7.8891A24.62271,24.62271,0,0,1,74.45166,47.5h7.88916a2.5,2.5,0,1,1,0,5H74.45166A24.62271,24.62271,0,0,1,52.5,74.45123Zm-5-5.05157V61.81543a2.5,2.5,0,1,1,5,0v7.58429A19.59348,19.59348,0,0,0,69.40015,52.5H61.81543a2.5,2.5,0,1,1,0-5h7.58472A19.59348,19.59348,0,0,0,52.5,30.60028v7.58429a2.5,2.5,0,1,1-5,0V30.60034A19.59325,19.59325,0,0,0,30.60083,47.5h7.58472a2.5,2.5,0,1,1,0,5H30.60083A19.59325,19.59325,0,0,0,47.5,69.39966Z"></path></svg>