<svg height='100px' width='100px'  fill="#3098f3" xmlns="http://www.w3.org/2000/svg" xmlns:xlink="http://www.w3.org/1999/xlink" version="1.1" x="0px" y="0px" viewBox="0 0 100 100" style="enable-background:new 0 0 100 100;" xml:space="preserve"><path d="M92,15h-6v-3.9C86,7.8,83.2,5,79.8,5H54.2c-1.6,0-3.1,0.6-4.2,1.6C49,5.6,47.6,5,46,5H20c-3.3,0-6,2.7-6,6v4H8  c-1.1,0-2,0.9-2,2v66c0,1.1,0.9,2,2,2h48v4c0,3.3,2.7,6,6,6h18c3.3,0,6-2.7,6-6v-4h6c1.1,0,2-0.9,2-2V17C94,15.9,93.1,15,92,15z   M18,11c0-1.1,0.9-2,2-2h26c1.1,0,2,0.9,2,2v60c0,1.1-0.9,2-2,2H20c-1.1,0-2-0.9-2-2V11z M56,81H10V19h4v52c0,3.3,2.7,6,6,6h26  c1.6,0,3-0.6,4.1-1.6c1.1,1,2.6,1.6,4.2,1.6H56V81z M82,89c0,1.1-0.9,2-2,2H62c-1.1,0-2-0.9-2-2v-9h22V89z M60,76V65  c0-1.1,0.9-2,2-2h7v13H60z M82,76h-9V63h7c1.1,0,2,0.9,2,2V76z M82,59.3c-0.6-0.2-1.3-0.3-2-0.3h-7v-9c0-4.4-3.6-8-8-8h-7  c-1.1,0-2,0.9-2,2c0,1.1,0.9,2,2,2h7c2.2,0,4,1.8,4,4v9h-7c-3.3,0-6,2.7-6,6v8h-1.8C53,73,52,72,52,70.9V11.1C52,10,53,9,54.2,9  h25.5C81,9,82,10,82,11.1V59.3z M90,81h-4V19h4V81z M24,27h18c1.1,0,2-0.9,2-2V15c0-1.1-0.9-2-2-2H24c-1.1,0-2,0.9-2,2v10  C22,26.1,22.9,27,24,27z M26,17h14v6H26V17z M22,33c0-1.1,0.9-2,2-2h18c1.1,0,2,0.9,2,2c0,1.1-0.9,2-2,2H24C22.9,35,22,34.1,22,33z   M22,41c0-1.1,0.9-2,2-2h18c1.1,0,2,0.9,2,2c0,1.1-0.9,2-2,2H24C22.9,43,22,42.1,22,41z M22,49c0-1.1,0.9-2,2-2h18c1.1,0,2,0.9,2,2  c0,1.1-0.9,2-2,2H24C22.9,51,22,50.1,22,49z M22,57c0-1.1,0.9-2,2-2h18c1.1,0,2,0.9,2,2c0,1.1-0.9,2-2,2H24C22.9,59,22,58.1,22,57z   M22,65c0-1.1,0.9-2,2-2h5c1.1,0,2,0.9,2,2c0,1.1-0.9,2-2,2h-5C22.9,67,22,66.1,22,65z M44,65c0,1.1-0.9,2-2,2h-5c-1.1,0-2-0.9-2-2  c0-1.1,0.9-2,2-2h5C43.1,63,44,63.9,44,65z M78,28c0,1.1-0.9,2-2,2H58c-1.1,0-2-0.9-2-2c0-1.1,0.9-2,2-2h18C77.1,26,78,26.9,78,28z   M78,36c0,1.1-0.9,2-2,2H58c-1.1,0-2-0.9-2-2c0-1.1,0.9-2,2-2h18C77.1,34,78,34.9,78,36z M78,20c0,1.1-0.9,2-2,2h-5  c-1.1,0-2-0.9-2-2c0-1.1,0.9-2,2-2h5C77.1,18,78,18.9,78,20z M56,20c0-1.1,0.9-2,2-2h5c1.1,0,2,0.9,2,2c0,1.1-0.9,2-2,2h-5  C56.9,22,56,21.1,56,20z"></path></svg>