<svg height='100px' width='100px'  fill="#3098f3" xmlns="http://www.w3.org/2000/svg" xmlns:xlink="http://www.w3.org/1999/xlink" version="1.0" x="0px" y="0px" viewBox="0 0 100 100" enable-background="new 0 0 100 100" xml:space="preserve"><path d="M83.333,10H16.667C13.001,10,10,13.001,10,16.666v66.667C10,86.998,13.001,90,16.667,90h66.666  C86.999,90,90,86.998,90,83.333V16.666C90,13.001,86.999,10,83.333,10z M83.333,83.333H16.667V16.666h66.666V83.333z"></path><path d="M70,26.663c1.843,0,3.333,1.494,3.333,3.333V40h-6.666v-6.667H53.333v33.333H60v6.667H40v-6.667h6.667V33.333H33.333V40  h-6.666V30c0-1.843,1.494-3.334,3.333-3.334L70,26.663z"></path></svg>