<svg xmlns="http://www.w3.org/2000/svg" viewBox="0 0 759.42 327.08"><defs><style>.cls-1{fill:#fff;}.cls-2{fill:#3098f3;}.cls-3{fill:#fc0;}</style></defs><g id="Layer_2" data-name="Layer 2"><g id="Layer_1-2" data-name="Layer 1"><path class="cls-1" d="M467.48,263.81c-10.22-28.62-14.31-63.37-14.31-100.16s4.09-71.55,12.27-100.17A309.71,309.71,0,0,1,477.7,32.81c4.09-10.22,16.36-14.31,22.49-2,2,2,8.18,16.35,12.26,30.66,8.18,26.58,12.27,61.33,12.27,100.17,0,36.8-4.09,71.55-14.31,100.17-4.09,14.31-10.22,26.57-12.27,28.62-4.08,10.22-16.35,12.26-20.44,0C475.66,288.34,471.57,276.08,467.48,263.81Zm-.29.18c-10.22-28.62-14.31-63.37-14.31-100.17S457,92.27,465.15,63.65A307.8,307.8,0,0,1,477.41,33c4.09-10.22,16.35-14.31,22.49-2.05,2,2.05,8.17,16.36,12.26,30.67,8.18,26.57,12.27,61.32,12.27,100.16,0,36.8-4.09,71.55-14.31,100.17-4.09,14.31-10.22,26.58-12.27,28.62-4.09,10.22-16.35,12.27-20.44,0C475.37,288.52,471.28,276.25,467.19,264Z"/><path class="cls-2" d="M500.79,119.75c.2-7.74-4.12-12.58-11-12.76-7-.18-11.44,4.44-11.64,12.17L477.05,162l-31.79-.82,2.1-80.77,31.79.83-.32,12.32c4.76-6.9,12.93-12.57,25.11-12.25,18.61.49,29.14,14.37,28.6,35.28l-1.22,46.83-31.65-.83Z"/><path class="cls-2" d="M511.39,238.33l-7.61.36L501,179.31l7.62-.36.5,10.55c2.91-7.44,9.56-12.12,19.78-12.6l.38,7.94-2.07.09c-9.9.47-18.06,5.33-17.35,20.23Z"/><path class="cls-3" d="M432.34,163.54c0,90,24.53,163.54,53.15,163.54h12.27c12.26,0,20.44-4.09,28.62-12.27L630.63,210.56q6.14-6.13,12.27-6.14H739c12.26,0,20.44-18.39,20.44-40.88s-8.18-40.89-20.44-40.89H642.9a15.62,15.62,0,0,1-10.22-4.08L528.42,14.31C518.2,4.09,510,0,497.76,0H485.49c-28.62,0-53.15,73.59-53.15,163.54Zm34.75,100.17c-10.22-28.62-14.3-63.37-14.3-100.17S456.87,92,465.05,63.37a307.24,307.24,0,0,1,12.27-30.66c4.08-10.22,16.35-14.31,22.48-2.05C501.85,32.71,508,47,512.07,61.33c8.17,26.57,12.26,61.32,12.26,100.16,0,36.8-4.09,71.55-14.31,100.17-4.08,14.31-10.22,26.58-12.26,28.62-4.09,10.22-16.36,12.27-20.44,0C475.27,288.24,471.18,276,467.09,263.71Z"/><path class="cls-2" d="M110.59,109.68c.17-6.87-4.16-11.14-11-11.32S88.14,102.22,88,109.09l-1.11,42.82-31.65-.83,1.11-42.81c.18-6.88-4.15-11.15-11-11.32s-11.42,3.85-11.6,10.73l-1.12,42.81L.78,149.67,2.88,68.9l31.79.83-.28,10.88C38.85,74.42,46.72,69.47,58,69.76c11.74.31,20.77,5.85,25.83,15.15,5.64-7.59,15-14.08,26.87-13.77,20.91.54,32.15,14.45,31.61,35.35l-1.22,46.83-31.65-.82Z"/><path class="cls-2" d="M193.22,155.68C168.88,155,151,139,151.63,113.18S171,72.27,195.38,72.91,237.64,89.63,237,115.4,217.57,156.31,193.22,155.68Zm.72-27.5c5.58.15,10.56-4,10.81-13.62s-4.5-14-10.09-14.16-10.56,4-10.81,13.62S188.21,128,193.94,128.18Z"/><path class="cls-2" d="M252.37,101.9l-10-.26L243,75.15l10,.26.51-19.47,31.79.83-.51,19.47,13.18.34-.69,26.5-13.18-.35-.56,21.77c-.1,3.72,1.57,5.48,5.73,5.59l7.59.2-.71,27.07-12-.32c-18.9-.49-33-8.88-32.36-33.94Z"/><path class="cls-2" d="M310.49,76.91l31.79.82-2.1,80.77-31.8-.83Zm-1.72-22.12c.23-8.87,7.43-15.71,18.74-15.41s18,7.49,17.78,16.37-7.43,15.42-18.6,15.13S308.54,63.53,308.77,54.79Z"/><path class="cls-2" d="M392.85,160.87c-24.35-.63-42.27-16.72-41.6-42.49S370.66,77.47,395,78.1s42.27,16.72,41.6,42.5S417.19,161.51,392.85,160.87Zm.71-27.49c5.59.14,10.57-4,10.82-13.62s-4.51-14-10.09-14.16-10.57,4-10.82,13.62S387.83,133.23,393.56,133.38Z"/><path class="cls-2" d="M509.27,81.86a34.88,34.88,0,0,0-5-.48c-12.17-.32-20.34,5.34-25.1,12.24l.32-12.32-31.79-.82-2.11,80.76,31.79.83,1.12-42.82c.2-7.73,4.62-12.34,11.64-12.16a11.79,11.79,0,0,1,5.73,1.54C498.76,99.14,504.34,90.7,509.27,81.86Z"/><path class="cls-2" d="M27,200.89c11.74-.55,20.42,5.36,24.14,12.7l-.61-12.94,7.61-.36L61,261.19c.78,16.64-10.11,28.16-26.43,28.94-15.33.72-26.36-6.6-29.34-18.89l7.51-.35c2.88,7.93,10.65,13.12,21.52,12.6C45.59,283,54,275,53.4,261.55l-.69-14.68c-3.12,7.78-11.08,14.58-22.83,15.14C13.57,262.78.93,251.28.05,232.69S10.68,201.67,27,200.89Zm1.73,6.57c-12.51.59-21.67,9.75-20.95,24.86s10.71,23.58,23.21,23c12.18-.58,21.65-10.18,21-25S40.9,206.88,28.72,207.46Z"/><path class="cls-2" d="M104.05,258.5c-16.86.8-29.7-10.37-30.59-29.18s10.62-31.13,27.7-31.94c17.4-.82,28.64,11.07,29.36,26.18a52.72,52.72,0,0,1,.06,6l-49.26,2.34c1.31,13.89,11.33,20.72,22.43,20.19,10.11-.48,16.71-6.13,18.51-14.17l8-.39C128.12,248.85,119,257.79,104.05,258.5ZM81,225.69l41.76-2c-.33-13.83-10.67-20.31-21.65-19.79C90.37,204.43,81.24,211.84,81,225.69Z"/><path class="cls-2" d="M188.86,219.6c-.62-13.16-8.12-19.56-19-19-11.09.53-18.48,7.85-17.8,22.32l1.54,32.41-7.61.36-2.81-59.38,7.61-.36.48,10.11c3.45-7.57,10.88-11.74,19.69-12.16,13.49-.64,24.54,7.12,25.36,24.53L198,253.17l-7.5.36Z"/><path class="cls-2" d="M240.53,252c-16.85.8-29.7-10.36-30.59-29.18s10.62-31.13,27.7-31.94C255,190.09,266.28,202,267,217.1a52.68,52.68,0,0,1,.06,6l-49.26,2.33c1.31,13.89,11.34,20.72,22.43,20.19,10.11-.48,16.71-6.13,18.51-14.17l8.05-.38C264.6,242.39,255.43,251.32,240.53,252Zm-23-32.81,41.76-2c-.33-13.82-10.67-20.31-21.65-19.79C226.85,198,217.72,205.37,217.51,219.22Z"/><path class="cls-2" d="M290.08,248.81l-7.61.36-2.81-59.38,7.61-.36.5,10.55c2.92-7.44,9.56-12.11,19.78-12.6l.38,7.94-2.07.1c-9.89.47-18.05,5.32-17.35,20.22Z"/><path class="cls-2" d="M343.89,185.88c12-.57,20.42,5.46,24.15,12.81l-.62-13.05,7.61-.36,2.81,59.37-7.61.36-.62-13.16c-3.12,7.78-11.08,14.59-22.94,15.15-16.2.77-28.84-10.73-29.72-29.33S327.58,186.65,343.89,185.88Zm1.73,6.57c-12.51.59-21.67,9.74-20.95,24.86s10.71,23.58,23.21,23c12.18-.57,21.65-10.17,20.95-25S357.8,191.87,345.62,192.45Z"/><path class="cls-2" d="M394.91,190.76l-8.26.4-.31-6.42,8.27-.39-.71-14.9,7.72-.37.71,14.9,16.31-.77.3,6.42-16.31.77,1.75,36.86c.34,7.29,2.95,9.46,9.8,9.13l7-.33.31,6.53-8.15.38c-10.33.49-16.08-3.49-16.64-15.34Z"/><path class="cls-2" d="M460,241.63c-16.75.8-30-10.35-30.92-29.16s11.6-31.18,28.24-32,30.24,10.22,31.14,29.15S476.74,240.84,460,241.63Zm-.31-6.63c11.2-.53,21.71-8.66,20.94-25s-11.79-23.42-23.1-22.89-21.5,8.65-20.73,25S448.37,235.53,459.68,235Z"/></g></g></svg>