<svg height='100px' width='100px'  fill="#252525" xmlns:dc="http://purl.org/dc/elements/1.1/" xmlns:cc="http://creativecommons.org/ns#" xmlns:rdf="http://www.w3.org/1999/02/22-rdf-syntax-ns#" xmlns:svg="http://www.w3.org/2000/svg" xmlns="http://www.w3.org/2000/svg" xmlns:sodipodi="http://sodipodi.sourceforge.net/DTD/sodipodi-0.dtd" xmlns:inkscape="http://www.inkscape.org/namespaces/inkscape" version="1.1" x="0px" y="0px" viewBox="0 0 100 100"><g transform="translate(0,-952.36218)"><path style="color:#000000;font-style:normal;font-variant:normal;font-weight:normal;font-stretch:normal;font-size:medium;line-height:normal;font-family:sans-serif;font-variant-ligatures:normal;font-variant-position:normal;font-variant-caps:normal;font-variant-numeric:normal;font-variant-alternates:normal;font-feature-settings:normal;text-indent:0;text-align:start;text-decoration:none;text-decoration-line:none;text-decoration-style:solid;text-decoration-color:#000000;letter-spacing:normal;word-spacing:normal;text-transform:none;writing-mode:lr-tb;direction:ltr;text-orientation:mixed;dominant-baseline:auto;baseline-shift:baseline;text-anchor:start;white-space:normal;shape-padding:0;clip-rule:nonzero;display:inline;overflow:visible;visibility:visible;opacity:1;isolation:auto;mix-blend-mode:normal;color-interpolation:sRGB;color-interpolation-filters:linearRGB;solid-color:#000000;solid-opacity:1;vector-effect:none;fill:#252525;fill-opacity:1;fill-rule:nonzero;stroke:none;stroke-width:4;stroke-linecap:round;stroke-linejoin:round;stroke-miterlimit:4;stroke-dasharray:none;stroke-dashoffset:0;stroke-opacity:1;marker:none;color-rendering:auto;image-rendering:auto;shape-rendering:auto;text-rendering:auto;enable-background:accumulate" d="M 53.904297 14.021484 C 53.073767 14.084232 52.276383 14.536897 51.839844 15.291016 L 37.974609 39.242188 L 8.578125 39.242188 C 7.1876642 39.242188 6 40.422889 6 41.818359 L 6 83.423828 C 6 84.819028 7.1876642 86 8.578125 86 L 51.703125 86 C 53.093586 86 54.28125 84.819028 54.28125 83.423828 L 54.28125 72.324219 A 2.0002 2.0002 0 1 0 50.28125 72.324219 L 50.28125 82 L 10 82 L 10 43.242188 L 35.660156 43.242188 L 30.982422 51.322266 C 30.28396 52.528766 30.71969 54.145344 31.925781 54.839844 L 69.273438 76.345703 C 70.479529 77.040203 72.098413 76.608944 72.796875 75.402344 L 93.654297 39.369141 C 94.352759 38.162551 93.918982 36.548026 92.712891 35.853516 L 55.365234 14.347656 C 54.91295 14.087215 54.402615 13.983836 53.904297 14.021484 z M 54.59375 18.517578 L 89.474609 38.605469 L 70.042969 72.173828 L 35.162109 52.085938 L 54.59375 18.517578 z M 76.042969 36.246094 C 74.311793 36.363364 72.671875 37.330802 71.751953 38.919922 C 70.271292 41.477822 71.170358 44.809479 73.736328 46.287109 C 76.295285 47.760569 79.629705 46.891591 81.111328 44.332031 C 82.599515 41.761291 81.660141 38.438214 79.101562 36.964844 C 78.160675 36.423044 77.088462 36.175294 76.042969 36.246094 z M 61.941406 39.990234 C 60.240256 40.105934 58.577281 41.039315 57.650391 42.640625 C 56.169664 45.198485 57.068758 48.530312 59.634766 50.007812 C 62.19377 51.481513 65.526192 50.612234 67.007812 48.052734 C 68.496 45.481954 67.558583 42.158917 65 40.685547 C 64.025084 40.124177 62.938494 39.922574 61.941406 39.990234 z M 76.314453 40.236328 C 76.574602 40.218728 76.825474 40.268428 77.105469 40.429688 C 77.802567 40.831108 78.028802 41.671075 77.648438 42.328125 C 77.261506 42.996565 76.429149 43.221482 75.732422 42.820312 C 75.042708 42.423143 74.826951 41.593928 75.214844 40.923828 C 75.462769 40.495548 75.869561 40.266458 76.314453 40.236328 z M 47.837891 43.710938 C 46.13674 43.826637 44.473765 44.760008 43.546875 46.361328 C 42.06612 48.919168 42.965281 52.250916 45.53125 53.728516 C 48.090207 55.202016 51.422636 54.332838 52.904297 51.773438 C 54.392411 49.202638 53.455046 45.877657 50.896484 44.404297 C 49.921427 43.842847 48.83458 43.643447 47.837891 43.710938 z M 62.210938 43.980469 L 62.212891 43.980469 C 62.520384 43.959869 62.758519 44.009071 63.003906 44.150391 C 63.701007 44.551821 63.927242 45.391768 63.546875 46.048828 C 63.15994 46.717248 62.327537 46.942206 61.630859 46.541016 C 60.941183 46.143886 60.723501 45.314471 61.111328 44.644531 C 61.351972 44.228791 61.736871 44.013199 62.210938 43.980469 z M 19.792969 46.980469 C 16.834528 46.980469 14.398437 49.418634 14.398438 52.365234 C 14.398438 55.311734 16.834599 57.75 19.792969 57.75 C 22.751338 57.75 25.208984 55.329034 25.208984 52.365234 C 25.208984 49.401434 22.751409 46.980469 19.792969 46.980469 z M 48.109375 47.701172 C 48.418327 47.680172 48.654566 47.729194 48.900391 47.871094 C 49.597513 48.272594 49.823799 49.112231 49.443359 49.769531 C 49.056464 50.437831 48.224071 50.662919 47.527344 50.261719 C 46.837631 49.864619 46.621964 49.035034 47.009766 48.365234 C 47.250723 47.948934 47.634456 47.733472 48.109375 47.701172 z M 19.792969 50.980469 C 20.593866 50.980469 21.208984 51.601734 21.208984 52.365234 C 21.208984 53.128834 20.593937 53.75 19.792969 53.75 C 18.991999 53.75 18.398438 53.146034 18.398438 52.365234 C 18.398438 51.584534 18.99207 50.980469 19.792969 50.980469 z M 30.140625 57.253906 C 27.199279 57.253906 24.748047 59.668634 24.748047 62.615234 C 24.748047 65.561734 27.182184 67.998047 30.140625 67.998047 C 33.099065 67.998047 35.533203 65.561734 35.533203 62.615234 C 35.533203 59.668634 33.08197 57.253906 30.140625 57.253906 z M 30.140625 61.253906 C 30.958618 61.253906 31.533203 61.834334 31.533203 62.615234 C 31.533203 63.395834 30.941523 63.998047 30.140625 63.998047 C 29.339726 63.998047 28.748047 63.395834 28.748047 62.615234 C 28.748047 61.834334 29.322631 61.253906 30.140625 61.253906 z M 19.792969 67.503906 C 16.834599 67.503906 14.398437 69.940219 14.398438 72.886719 C 14.398438 75.833319 16.851623 78.248047 19.792969 78.248047 C 22.734314 78.248047 25.208984 75.850619 25.208984 72.886719 C 25.208984 69.923019 22.751338 67.503906 19.792969 67.503906 z M 40.488281 67.503906 C 37.529911 67.503906 35.095703 69.940219 35.095703 72.886719 C 35.095703 75.833319 37.546936 78.248047 40.488281 78.248047 C 43.429627 78.248047 45.882812 75.833319 45.882812 72.886719 C 45.882812 69.940219 43.446651 67.503906 40.488281 67.503906 z M 19.792969 71.503906 C 20.593937 71.503906 21.208984 72.123319 21.208984 72.886719 C 21.208984 73.650319 20.610961 74.248047 19.792969 74.248047 C 18.974974 74.248047 18.398438 73.667619 18.398438 72.886719 C 18.398438 72.106119 18.991999 71.503906 19.792969 71.503906 z M 40.488281 71.503906 C 41.289251 71.503906 41.882812 72.106119 41.882812 72.886719 C 41.882812 73.667619 41.306276 74.248047 40.488281 74.248047 C 39.670287 74.248047 39.095703 73.667619 39.095703 72.886719 C 39.095703 72.106119 39.687311 71.503906 40.488281 71.503906 z " transform="translate(0,952.36218)"></path></g></svg>