<svg height='100px' width='100px'  fill="#3098f3" xmlns:x="http://ns.adobe.com/Extensibility/1.0/" xmlns:i="http://ns.adobe.com/AdobeIllustrator/10.0/" xmlns:graph="http://ns.adobe.com/Graphs/1.0/" xmlns="http://www.w3.org/2000/svg" xmlns:xlink="http://www.w3.org/1999/xlink" version="1.1" x="0px" y="0px" viewBox="0 0 100 100" style="enable-background:new 0 0 100 100;" xml:space="preserve"><g><g i:extraneous="self"><g><path d="M83,2.6H17C9,2.6,2.5,9.1,2.5,17.1v44.3c0,8,6.5,14.5,14.5,14.5h1.5c-0.4,3.1-1.3,6.2-2.5,9c-1.5,3.5-0.7,7.4,2,10     c1.7,1.6,3.9,2.5,6.2,2.5c1.3,0,2.7-0.3,4-0.9c9.7-4.8,18-13.6,23.5-20.6H83c8,0,14.5-6.5,14.5-14.5V17.1C97.5,9.1,91,2.6,83,2.6     z M90.2,61.4c0,4-3.2,7.2-7.2,7.2H49.8c-1.1,0-2.2,0.5-2.9,1.4c-4.1,5.4-12.4,15.2-22.1,19.9c-0.6,0.3-1.3,0.2-1.8-0.3     c-0.5-0.5-0.6-1.1-0.4-1.8c2.2-4.9,3.3-10.1,3.5-15.6c0-1-0.4-1.9-1-2.6s-1.6-1.1-2.6-1.1H17c-4,0-7.2-3.2-7.2-7.2V17.1     c0-4,3.2-7.2,7.2-7.2h66c4,0,7.2,3.2,7.2,7.2V61.4z"></path><path d="M67.8,32l-9.3-0.8c-1.1-0.1-2-0.8-2.4-1.7l-3.6-8.6c-1-2.3-4.3-2.3-5.2,0l-3.6,8.6c-0.4,1-1.3,1.7-2.4,1.7L32.2,32     c-2.5,0.2-3.5,3.3-1.6,5l7,6c0.8,0.7,1.2,1.8,0.9,2.8l-2.1,9c-0.6,2.5,2.1,4.4,4.2,3.1l7.9-4.8c0.9-0.6,2-0.6,3,0l7.9,4.8     c2.2,1.3,4.8-0.6,4.2-3.1l-2.1-9c-0.2-1,0.1-2.1,0.9-2.8l7-6.1C71.4,35.3,70.4,32.2,67.8,32z"></path></g></g></g></svg>