<svg height='100px' width='100px'  fill="#3098f3" xmlns="http://www.w3.org/2000/svg" data-name="Layer 1" viewBox="0 0 48 48" x="0px" y="0px"><title>Ui vol.1</title><path d="M46.21484,23.83545h-5.333V15.42383a.99974.99974,0,0,0-1-1h-5.333v-6.917a.99974.99974,0,0,0-1-1h-22.167a.99973.99973,0,0,0-1,1v1.375H2.84961a.99974.99974,0,0,0-1,1V40.49316c0,.01258.00671.02295.00714.0354a.988.988,0,0,0,.069.34205c.00592.01446.015.02624.02155.04034a.99063.99063,0,0,0,.083.15546.98018.98018,0,0,0,.08783.098c.01526.01666.028.034.04438.04956a.98892.98892,0,0,0,.2738.18451c.02112.00964.04248.01611.06433.02429a.99111.99111,0,0,0,.349.07037H40.32129a.99956.99956,0,0,0,.93555-.64746l5.89355-15.6582a.99972.99972,0,0,0-.93555-1.352Zm-7.333-7.41162v7.41162h-4.333V16.42383Zm-26.5-7.917h20.167V23.83545h-20.167Zm-2,2.375V23.83545H8.56738a1.0009,1.0009,0,0,0-.93945.65723L3.84961,34.83936V10.88184ZM39.62891,39.49316H4.2793L9.2666,25.83594H44.76953Z"></path><path d="M19.5498,13.35205h5.83106a1,1,0,0,0,0-2H19.5498a1,1,0,0,0,0,2Z"></path><path d="M19.5498,17.17139h5.83106a1,1,0,1,0,0-2H19.5498a1,1,0,0,0,0,2Z"></path><path d="M19.5498,20.99072h5.83106a1,1,0,0,0,0-2H19.5498a1,1,0,0,0,0,2Z"></path></svg>